<svg width="299" height="86" viewBox="0 0 299 86" fill="none" xmlns="http://www.w3.org/2000/svg">
<path d="M158.619 0V39.277H154.578V0.93125L158.619 0Z" fill="#9FC0A2"/>
<path d="M164.254 6.57355C163.526 6.57355 162.889 6.29966 162.343 5.75186C161.797 5.20406 161.524 4.56497 161.524 3.83457C161.524 3.06766 161.797 2.42856 162.343 1.91728C162.889 1.36949 163.526 1.09559 164.254 1.09559C165.018 1.09559 165.655 1.36949 166.165 1.91728C166.711 2.42856 166.984 3.06766 166.984 3.83457C166.984 4.56497 166.711 5.20406 166.165 5.75186C165.655 6.29966 165.018 6.57355 164.254 6.57355ZM166.274 11.8324V39.277H162.233V11.8324H166.274Z" fill="#9FC0A2"/>
<path d="M183.485 36.0998C184.941 36.0998 186.342 35.8076 187.689 35.2233C189.036 34.639 190.292 33.7808 191.457 32.6486L193.968 35.3876C192.512 36.7754 190.874 37.8527 189.054 38.6196C187.234 39.3865 185.341 39.77 183.375 39.77C181.446 39.77 179.626 39.4048 177.915 38.6744C176.204 37.944 174.73 36.9397 173.492 35.6615C172.255 34.3833 171.272 32.8678 170.544 31.1148C169.816 29.3619 169.452 27.4994 169.452 25.5273C169.452 23.5552 169.816 21.711 170.544 19.9946C171.272 18.2416 172.255 16.726 173.492 15.4479C174.73 14.1697 176.204 13.1654 177.915 12.435C179.626 11.6681 181.446 11.2846 183.375 11.2846C185.341 11.2846 187.252 11.6681 189.109 12.435C191.002 13.2019 192.658 14.261 194.078 15.6122L191.511 18.5703C190.419 17.4382 189.163 16.5617 187.744 15.9409C186.324 15.32 184.886 15.0096 183.43 15.0096C182.047 15.0096 180.736 15.2835 179.499 15.8313C178.261 16.3791 177.187 17.1278 176.277 18.0773C175.403 19.0268 174.712 20.1406 174.202 21.4188C173.693 22.697 173.438 24.0665 173.438 25.5273C173.438 27.0246 173.693 28.4306 174.202 29.7453C174.748 31.0235 175.458 32.1374 176.332 33.0869C177.242 33.9999 178.316 34.7303 179.553 35.2781C180.791 35.8259 182.101 36.0998 183.485 36.0998Z" fill="#9FC0A2"/>
<path d="M197.61 39.277V0.93125L201.651 0V15.0644C202.707 13.8227 203.962 12.8915 205.418 12.2706C206.875 11.6133 208.494 11.2846 210.278 11.2846C213.372 11.2846 215.902 12.2706 217.868 14.2427C219.834 16.2148 220.817 18.7711 220.817 21.9118V39.277H216.83V22.7335C216.83 20.3232 216.139 18.4059 214.756 16.9817C213.372 15.5574 211.516 14.8453 209.186 14.8453C207.548 14.8453 206.074 15.2105 204.763 15.9409C203.489 16.6713 202.452 17.7121 201.651 19.0633V39.277H197.61Z" fill="#9FC0A2"/>
<path d="M247.89 36.3737C246.361 37.5058 244.76 38.364 243.085 38.9483C241.447 39.4961 239.645 39.77 237.679 39.77C235.714 39.77 233.857 39.4048 232.11 38.6744C230.399 37.944 228.907 36.9397 227.633 35.6615C226.395 34.3833 225.412 32.886 224.684 31.1696C223.956 29.4167 223.592 27.5359 223.592 25.5273C223.592 23.5552 223.938 21.711 224.629 19.9946C225.357 18.2781 226.322 16.7808 227.523 15.5026C228.725 14.2244 230.144 13.2201 231.782 12.4897C233.457 11.7594 235.222 11.3942 237.079 11.3942C238.899 11.3942 240.592 11.7594 242.157 12.4897C243.759 13.2201 245.124 14.2244 246.252 15.5026C247.417 16.7808 248.327 18.2781 248.982 19.9946C249.674 21.711 250.02 23.5552 250.02 25.5273V26.7872H227.578C227.869 29.4897 228.979 31.7357 230.909 33.5251C232.838 35.3146 235.15 36.2093 237.843 36.2093C239.263 36.2093 240.646 35.9902 241.993 35.552C243.34 35.1137 244.468 34.4929 245.378 33.6895L247.89 36.3737ZM236.97 14.9548C234.603 14.9548 232.547 15.7583 230.799 17.3651C229.089 18.972 228.051 21.0354 227.687 23.5552H245.979C245.615 21.1449 244.578 19.1181 242.867 17.4747C241.192 15.7948 239.227 14.9548 236.97 14.9548Z" fill="#9FC0A2"/>
<path d="M252.058 35.4972L254.516 32.8678C255.753 34.0364 257.136 34.9494 258.665 35.6068C260.231 36.2276 261.814 36.538 263.416 36.538C265.6 36.538 267.384 36.0815 268.767 35.1685C270.15 34.2555 270.842 33.0686 270.842 31.6078C270.842 30.4392 270.423 29.5262 269.586 28.8689C268.785 28.175 267.511 27.7002 265.764 27.4446L261.013 26.7872C258.283 26.3855 256.245 25.5821 254.898 24.3769C253.587 23.1353 252.932 21.4736 252.932 19.392C252.932 17.0912 253.897 15.1922 255.826 13.6949C257.755 12.1611 260.212 11.3942 263.197 11.3942C265.163 11.3942 267.02 11.6863 268.767 12.2706C270.551 12.8549 272.28 13.7679 273.954 15.0096L271.825 17.7486C270.296 16.726 268.803 15.9591 267.347 15.4479C265.928 14.9366 264.471 14.6809 262.979 14.6809C261.122 14.6809 259.594 15.1009 258.392 15.9409C257.227 16.7808 256.645 17.8764 256.645 19.2276C256.645 20.3963 257.045 21.3093 257.846 21.9666C258.647 22.5875 259.939 23.0257 261.723 23.2813L266.474 23.9387C269.204 24.3039 271.242 25.1256 272.589 26.4038C273.972 27.6454 274.664 29.3071 274.664 31.3887C274.664 32.5573 274.373 33.6712 273.79 34.7303C273.244 35.7528 272.462 36.6476 271.442 37.4145C270.46 38.1449 269.295 38.7292 267.948 39.1674C266.601 39.5691 265.145 39.77 263.58 39.77C261.323 39.77 259.193 39.4048 257.191 38.6744C255.225 37.9075 253.514 36.8484 252.058 35.4972Z" fill="#9FC0A2"/>
<path d="M275.762 35.4972L278.219 32.8678C279.456 34.0364 280.84 34.9494 282.369 35.6068C283.934 36.2276 285.517 36.538 287.119 36.538C289.303 36.538 291.087 36.0815 292.47 35.1685C293.853 34.2555 294.545 33.0686 294.545 31.6078C294.545 30.4392 294.126 29.5262 293.289 28.8689C292.488 28.175 291.214 27.7002 289.467 27.4446L284.717 26.7872C281.986 26.3855 279.948 25.5821 278.601 24.3769C277.291 23.1353 276.635 21.4736 276.635 19.392C276.635 17.0912 277.6 15.1922 279.529 13.6949C281.459 12.1611 283.916 11.3942 286.901 11.3942C288.866 11.3942 290.723 11.6863 292.47 12.2706C294.254 12.8549 295.983 13.7679 297.657 15.0096L295.528 17.7486C293.999 16.726 292.507 15.9591 291.05 15.4479C289.631 14.9366 288.175 14.6809 286.682 14.6809C284.826 14.6809 283.297 15.1009 282.096 15.9409C280.931 16.7808 280.348 17.8764 280.348 19.2276C280.348 20.3963 280.749 21.3093 281.55 21.9666C282.35 22.5875 283.643 23.0257 285.426 23.2813L290.177 23.9387C292.907 24.3039 294.945 25.1256 296.292 26.4038C297.676 27.6454 298.367 29.3071 298.367 31.3887C298.367 32.5573 298.076 33.6712 297.494 34.7303C296.948 35.7528 296.165 36.6476 295.146 37.4145C294.163 38.1449 292.998 38.7292 291.651 39.1674C290.304 39.5691 288.848 39.77 287.283 39.77C285.026 39.77 282.896 39.4048 280.894 38.6744C278.929 37.9075 277.218 36.8484 275.762 35.4972Z" fill="#9FC0A2"/>
<path d="M0 38.9738V3.38899H14.6915C18.1144 3.38899 20.8595 4.35487 22.9268 6.28662C24.9941 8.21837 26.0278 10.7601 26.0278 13.9119C26.0278 17.0637 24.9941 19.6055 22.9268 21.5373C20.8595 23.469 18.1144 24.4349 14.6915 24.4349H3.91433V38.9738H0ZM14.2339 6.84581H3.91433V21.0797H14.2339C16.674 21.0797 18.5888 20.4358 19.9783 19.148C21.4017 17.8602 22.1134 16.1148 22.1134 13.9119C22.1134 11.743 21.4017 10.0315 19.9783 8.77756C18.5888 7.48972 16.674 6.84581 14.2339 6.84581Z" fill="#F2F5F3"/>
<path d="M30.008 38.9738V14.1661H33.719V19.1988C34.3629 17.4704 35.278 16.1318 36.4641 15.1828C37.6842 14.2 39.0737 13.7086 40.6326 13.7086C41.0732 13.7086 41.4799 13.7425 41.8527 13.8103C42.2255 13.8442 42.5983 13.9289 42.9711 14.0644V17.4196C42.5644 17.284 42.1238 17.1824 41.6494 17.1146C41.2088 17.0129 40.7852 16.9621 40.3785 16.9621C38.8534 16.9621 37.5147 17.4026 36.3625 18.2838C35.2441 19.1649 34.3629 20.4019 33.719 21.9948V38.9738H30.008Z" fill="#F2F5F3"/>
<path d="M64.2362 36.127C62.8128 37.2454 61.3386 38.0757 59.8135 38.618C58.2884 39.1602 56.6617 39.4314 54.9333 39.4314C53.2049 39.4314 51.5782 39.1094 50.0531 38.4655C48.5619 37.7877 47.2571 36.8726 46.1388 35.7204C45.0543 34.5681 44.1901 33.2125 43.5462 31.6535C42.9361 30.0607 42.6311 28.3662 42.6311 26.57C42.6311 24.7738 42.9192 23.0962 43.4953 21.5373C44.1053 19.9444 44.9357 18.5888 45.9863 17.4704C47.0369 16.3182 48.2739 15.4201 49.6972 14.7761C51.1206 14.0983 52.6626 13.7594 54.3233 13.7594C55.95 13.7594 57.4581 14.0814 58.8476 14.7253C60.2371 15.3692 61.4402 16.2504 62.457 17.3688C63.4737 18.4532 64.2701 19.775 64.8462 21.3339C65.4224 22.859 65.7104 24.5027 65.7104 26.265V27.3833H46.2404C46.4099 29.8912 47.3419 31.9924 49.0364 33.6869C50.7309 35.3476 52.7474 36.1779 55.0858 36.1779C56.3736 36.1779 57.6106 35.9576 58.7968 35.517C60.0168 35.0426 61.0505 34.4156 61.8978 33.6361L64.2362 36.127ZM54.2724 16.9621C52.239 16.9621 50.4937 17.6907 49.0364 19.148C47.5791 20.6053 46.681 22.4693 46.3421 24.7399H62.0503C61.7791 22.5031 60.9149 20.6561 59.4577 19.1988C58.0343 17.7077 56.3059 16.9621 54.2724 16.9621Z" fill="#F2F5F3"/>
<path d="M71.7086 33.3819V17.2162H66.5742V14.1661H71.7086V7.35416L75.4196 6.48996V14.1661H82.5366V17.2162H75.4196V32.4161C75.4196 33.7378 75.6907 34.6867 76.233 35.2628C76.8091 35.839 77.7411 36.127 79.0289 36.127C79.6728 36.127 80.249 36.0762 80.7573 35.9745C81.2657 35.8729 81.8588 35.7034 82.5366 35.4662V38.7705C81.8588 39.0077 81.1471 39.1772 80.4015 39.2789C79.6559 39.3805 78.9273 39.4314 78.2156 39.4314C76.0805 39.4314 74.4537 38.923 73.3353 37.9063C72.2509 36.8557 71.7086 35.3476 71.7086 33.3819Z" fill="#F2F5F3"/>
<path d="M88.8755 33.3819V17.2162H83.7411V14.1661H88.8755V7.35416L92.5865 6.48996V14.1661H99.7035V17.2162H92.5865V32.4161C92.5865 33.7378 92.8576 34.6867 93.3999 35.2628C93.976 35.839 94.908 36.127 96.1958 36.127C96.8397 36.127 97.4159 36.0762 97.9242 35.9745C98.4326 35.8729 99.0257 35.7034 99.7035 35.4662V38.7705C99.0257 39.0077 98.314 39.1772 97.5684 39.2789C96.8228 39.3805 96.0942 39.4314 95.3825 39.4314C93.2474 39.4314 91.6206 38.923 90.5023 37.9063C89.4178 36.8557 88.8755 35.3476 88.8755 33.3819Z" fill="#F2F5F3"/>
<path d="M104.478 8.06586C103.733 8.06586 103.089 7.81168 102.547 7.30333C102.038 6.76108 101.784 6.11717 101.784 5.37158C101.784 4.65988 102.038 4.04986 102.547 3.5415C103.089 2.99926 103.733 2.72813 104.478 2.72813C105.19 2.72813 105.8 2.99926 106.309 3.5415C106.851 4.04986 107.122 4.65988 107.122 5.37158C107.122 6.11717 106.868 6.76108 106.359 7.30333C105.851 7.81168 105.224 8.06586 104.478 8.06586ZM106.309 14.1661V38.9738H102.598V14.1661H106.309Z" fill="#F2F5F3"/>
<path d="M131.861 36.127C130.438 37.2454 128.964 38.0757 127.439 38.618C125.914 39.1602 124.287 39.4314 122.558 39.4314C120.83 39.4314 119.203 39.1094 117.678 38.4655C116.187 37.7877 114.882 36.8726 113.764 35.7204C112.679 34.5681 111.815 33.2125 111.171 31.6535C110.561 30.0607 110.256 28.3662 110.256 26.57C110.256 24.7738 110.544 23.0962 111.12 21.5373C111.73 19.9444 112.561 18.5888 113.611 17.4704C114.662 16.3182 115.899 15.4201 117.322 14.7761C118.746 14.0983 120.288 13.7594 121.948 13.7594C123.575 13.7594 125.083 14.0814 126.473 14.7253C127.862 15.3692 129.065 16.2504 130.082 17.3688C131.099 18.4532 131.895 19.775 132.471 21.3339C133.047 22.859 133.336 24.5027 133.336 26.265V27.3833H113.866C114.035 29.8912 114.967 31.9924 116.661 33.6869C118.356 35.3476 120.372 36.1779 122.711 36.1779C123.999 36.1779 125.236 35.9576 126.422 35.517C127.642 35.0426 128.676 34.4156 129.523 33.6361L131.861 36.127ZM121.898 16.9621C119.864 16.9621 118.119 17.6907 116.661 19.148C115.204 20.6053 114.306 22.4693 113.967 24.7399H129.675C129.404 22.5031 128.54 20.6561 127.083 19.1988C125.659 17.7077 123.931 16.9621 121.898 16.9621Z" fill="#F2F5F3"/>
<path d="M137.13 38.9738V14.1661H140.841V19.1988C141.485 17.4704 142.4 16.1318 143.586 15.1828C144.806 14.2 146.196 13.7086 147.755 13.7086C148.195 13.7086 148.602 13.7425 148.975 13.8103C149.347 13.8442 149.72 13.9289 150.093 14.0644V17.4196C149.686 17.284 149.246 17.1824 148.771 17.1146C148.331 17.0129 147.907 16.9621 147.5 16.9621C145.975 16.9621 144.637 17.4026 143.484 18.2838C142.366 19.1649 141.485 20.4019 140.841 21.9948V38.9738H137.13Z" fill="#F2F5F3"/>
<path d="M50.3796 81.3368V65.9167H52.0758V81.3368H50.3796Z" fill="#F2F5F3"/>
<path d="M55.8417 78.9136V71.9085H53.6168V70.5868H55.8417V67.6349L57.4498 67.2604V70.5868H60.5338V71.9085H57.4498V78.4951C57.4498 79.0678 57.5673 79.479 57.8023 79.7287C58.0519 79.9783 58.4558 80.1032 59.0139 80.1032C59.2929 80.1032 59.5425 80.0811 59.7628 80.0371C59.9831 79.993 60.2401 79.9196 60.5338 79.8168V81.2487C60.2401 81.3515 59.9317 81.4249 59.6086 81.469C59.2855 81.513 58.9698 81.535 58.6614 81.535C57.7362 81.535 57.0313 81.3148 56.5466 80.8742C56.0767 80.4189 55.8417 79.7654 55.8417 78.9136Z" fill="#F2F5F3"/>
<path d="M63.0148 64.8152H64.7331L62.9487 69.9039H61.6931L63.0148 64.8152Z" fill="#F2F5F3"/>
<path d="M63.9751 79.949L64.8343 78.8916C65.4658 79.3615 66.0532 79.7067 66.5966 79.9269C67.1546 80.1325 67.72 80.2353 68.2928 80.2353C69.0711 80.2353 69.7173 80.0518 70.2313 79.6846C70.7453 79.3175 71.0023 78.8549 71.0023 78.2968C71.0023 77.8562 70.8481 77.5111 70.5397 77.2615C70.2313 77.0118 69.7393 76.8209 69.0638 76.6887L67.3015 76.3803C66.2588 76.1894 65.4878 75.8663 64.9885 75.4111C64.5038 74.9558 64.2615 74.339 64.2615 73.5606C64.2615 72.6354 64.6213 71.8791 65.3409 71.2917C66.0752 70.7043 67.0078 70.4105 68.1386 70.4105C68.8729 70.4105 69.5704 70.5207 70.2313 70.741C70.8922 70.9613 71.5604 71.299 72.2359 71.7543L71.4429 72.8778C70.8848 72.4812 70.3268 72.1949 69.7687 72.0186C69.2106 71.8277 68.6452 71.7323 68.0725 71.7323C67.3676 71.7323 66.8022 71.8865 66.3763 72.1949C65.9504 72.5033 65.7374 72.9218 65.7374 73.4505C65.7374 73.8911 65.8696 74.2289 66.134 74.4638C66.413 74.6988 66.8976 74.875 67.5878 74.9925L69.3942 75.3229C70.4663 75.5139 71.252 75.8443 71.7513 76.3142C72.2653 76.7842 72.5223 77.4157 72.5223 78.2087C72.5223 79.1339 72.1184 79.9196 71.3107 80.5658C70.5177 81.212 69.5264 81.535 68.3368 81.535C67.4557 81.535 66.6406 81.4029 65.8916 81.1385C65.1427 80.8595 64.5038 80.463 63.9751 79.949Z" fill="#F2F5F3"/>
<path d="M79.5174 65.2558V81.3368H77.9093V65.5863L79.5174 65.2558Z" fill="#F2F5F3"/>
<path d="M82.5278 67.9433C82.2047 67.9433 81.9257 67.8332 81.6907 67.6129C81.4704 67.3779 81.3603 67.0989 81.3603 66.7758C81.3603 66.4674 81.4704 66.2031 81.6907 65.9828C81.9257 65.7478 82.2047 65.6303 82.5278 65.6303C82.8362 65.6303 83.1005 65.7478 83.3208 65.9828C83.5558 66.2031 83.6733 66.4674 83.6733 66.7758C83.6733 67.0989 83.5631 67.3779 83.3429 67.6129C83.1226 67.8332 82.8509 67.9433 82.5278 67.9433ZM83.3208 70.5868V81.3368H81.7127V70.5868H83.3208Z" fill="#F2F5F3"/>
<path d="M90.4285 80.0811C91.016 80.0811 91.5667 79.971 92.0807 79.7507C92.6094 79.5304 93.0573 79.2147 93.4244 78.8035L94.4157 79.7948C93.9017 80.3381 93.2849 80.764 92.5653 81.0724C91.8604 81.3808 91.1188 81.535 90.3404 81.535C89.6061 81.535 88.9085 81.3955 88.2477 81.1165C87.6015 80.8228 87.0434 80.4263 86.5735 79.9269C86.1036 79.4276 85.7291 78.8402 85.45 78.1646C85.171 77.4744 85.0315 76.7401 85.0315 75.9618C85.0315 75.1834 85.1637 74.4565 85.428 73.7809C85.707 73.1054 86.0815 72.518 86.5515 72.0186C87.0361 71.5193 87.6015 71.1301 88.2477 70.8511C88.8939 70.5574 89.5914 70.4105 90.3404 70.4105C91.1334 70.4105 91.8898 70.5574 92.6094 70.8511C93.329 71.1448 93.9531 71.556 94.4818 72.0847L93.4465 73.2082C93.0646 72.797 92.602 72.4739 92.0586 72.2389C91.5153 71.9893 90.9646 71.8644 90.4065 71.8644C89.8778 71.8644 89.3785 71.9746 88.9085 72.1949C88.4533 72.4005 88.0568 72.6868 87.719 73.054C87.3959 73.4211 87.1316 73.8544 86.926 74.3537C86.735 74.853 86.6396 75.389 86.6396 75.9618C86.6396 77.122 87.0067 78.0986 87.741 78.8916C88.4753 79.6846 89.3711 80.0811 90.4285 80.0811Z" fill="#F2F5F3"/>
<path d="M95.6226 81.3368V65.5863L97.2307 65.2558V72.327C97.6419 71.6955 98.1339 71.2183 98.7067 70.8952C99.2794 70.5721 99.9256 70.4105 100.645 70.4105C101.791 70.4105 102.723 70.7777 103.443 71.512C104.177 72.2463 104.544 73.2008 104.544 74.3757V81.3368H102.936V74.8383C102.936 73.8984 102.672 73.1494 102.143 72.5914C101.629 72.0333 100.932 71.7543 100.05 71.7543C99.463 71.7543 98.927 71.8938 98.4423 72.1728C97.9577 72.4519 97.5538 72.8631 97.2307 73.4064V81.3368H95.6226Z" fill="#F2F5F3"/>
<path d="M115.553 80.1032C114.936 80.5878 114.298 80.9476 113.637 81.1826C112.976 81.4176 112.271 81.535 111.522 81.535C110.773 81.535 110.068 81.3955 109.407 81.1165C108.761 80.8228 108.196 80.4263 107.711 79.9269C107.241 79.4276 106.867 78.8402 106.588 78.1646C106.323 77.4744 106.191 76.7401 106.191 75.9618C106.191 75.1834 106.316 74.4565 106.566 73.7809C106.83 73.0907 107.19 72.5033 107.645 72.0186C108.1 71.5193 108.636 71.1301 109.253 70.8511C109.87 70.5574 110.538 70.4105 111.258 70.4105C111.963 70.4105 112.616 70.5501 113.218 70.8291C113.82 71.1081 114.342 71.4899 114.782 71.9746C115.223 72.4445 115.568 73.0173 115.818 73.6928C116.067 74.3537 116.192 75.0659 116.192 75.8296V76.3142H107.755C107.829 77.401 108.232 78.3115 108.967 79.0458C109.701 79.7654 110.575 80.1252 111.588 80.1252C112.146 80.1252 112.682 80.0297 113.196 79.8388C113.725 79.6332 114.173 79.3615 114.54 79.0238L115.553 80.1032ZM111.236 71.7983C110.355 71.7983 109.598 72.1141 108.967 72.7456C108.335 73.3771 107.946 74.1848 107.799 75.1687H114.606C114.489 74.1995 114.114 73.3991 113.483 72.7676C112.866 72.1214 112.117 71.7983 111.236 71.7983Z" fill="#F2F5F3"/>
<path d="M116.909 79.949L117.768 78.8916C118.399 79.3615 118.987 79.7067 119.53 79.9269C120.088 80.1325 120.653 80.2353 121.226 80.2353C122.005 80.2353 122.651 80.0518 123.165 79.6846C123.679 79.3175 123.936 78.8549 123.936 78.2968C123.936 77.8562 123.782 77.5111 123.473 77.2615C123.165 77.0118 122.673 76.8209 121.997 76.6887L120.235 76.3803C119.192 76.1894 118.421 75.8663 117.922 75.4111C117.437 74.9558 117.195 74.339 117.195 73.5606C117.195 72.6354 117.555 71.8791 118.274 71.2917C119.009 70.7043 119.941 70.4105 121.072 70.4105C121.806 70.4105 122.504 70.5207 123.165 70.741C123.826 70.9613 124.494 71.299 125.169 71.7543L124.376 72.8778C123.818 72.4812 123.26 72.1949 122.702 72.0186C122.144 71.8277 121.579 71.7323 121.006 71.7323C120.301 71.7323 119.736 71.8865 119.31 72.1949C118.884 72.5033 118.671 72.9218 118.671 73.4505C118.671 73.8911 118.803 74.2289 119.067 74.4638C119.346 74.6988 119.831 74.875 120.521 74.9925L122.328 75.3229C123.4 75.5139 124.185 75.8443 124.685 76.3142C125.199 76.7842 125.456 77.4157 125.456 78.2087C125.456 79.1339 125.052 79.9196 124.244 80.5658C123.451 81.212 122.46 81.535 121.27 81.535C120.389 81.535 119.574 81.4029 118.825 81.1385C118.076 80.8595 117.437 80.463 116.909 79.949Z" fill="#F2F5F3"/>
<path d="M125.939 79.949L126.799 78.8916C127.43 79.3615 128.018 79.7067 128.561 79.9269C129.119 80.1325 129.684 80.2353 130.257 80.2353C131.035 80.2353 131.682 80.0518 132.196 79.6846C132.71 79.3175 132.967 78.8549 132.967 78.2968C132.967 77.8562 132.812 77.5111 132.504 77.2615C132.196 77.0118 131.704 76.8209 131.028 76.6887L129.266 76.3803C128.223 76.1894 127.452 75.8663 126.953 75.4111C126.468 74.9558 126.226 74.339 126.226 73.5606C126.226 72.6354 126.586 71.8791 127.305 71.2917C128.04 70.7043 128.972 70.4105 130.103 70.4105C130.837 70.4105 131.535 70.5207 132.196 70.741C132.857 70.9613 133.525 71.299 134.2 71.7543L133.407 72.8778C132.849 72.4812 132.291 72.1949 131.733 72.0186C131.175 71.8277 130.61 71.7323 130.037 71.7323C129.332 71.7323 128.767 71.8865 128.341 72.1949C127.915 72.5033 127.702 72.9218 127.702 73.4505C127.702 73.8911 127.834 74.2289 128.098 74.4638C128.377 74.6988 128.862 74.875 129.552 74.9925L131.359 75.3229C132.431 75.5139 133.216 75.8443 133.716 76.3142C134.23 76.7842 134.487 77.4157 134.487 78.2087C134.487 79.1339 134.083 79.9196 133.275 80.5658C132.482 81.212 131.491 81.535 130.301 81.535C129.42 81.535 128.605 81.4029 127.856 81.1385C127.107 80.8595 126.468 80.463 125.939 79.949Z" fill="#F2F5F3"/>
<path d="M135.84 79.7067H137.558L135.774 84.7953H134.518L135.84 79.7067Z" fill="#F2F5F3"/>
<path d="M153.377 75.9618C153.377 76.7401 153.245 77.4671 152.981 78.1426C152.731 78.8182 152.379 79.4056 151.924 79.9049C151.468 80.3895 150.932 80.7787 150.315 81.0724C149.699 81.3515 149.038 81.491 148.333 81.491C147.657 81.491 147.026 81.3588 146.438 81.0945C145.866 80.8154 145.366 80.4263 144.94 79.9269V81.3368H143.354V65.5863L144.962 65.2558V72.0627C145.374 71.5634 145.873 71.1742 146.46 70.8952C147.048 70.6015 147.701 70.4546 148.421 70.4546C149.111 70.4546 149.757 70.6015 150.36 70.8952C150.976 71.1742 151.505 71.5634 151.946 72.0627C152.386 72.5473 152.731 73.1274 152.981 73.803C153.245 74.4785 153.377 75.1981 153.377 75.9618ZM148.024 71.8644C147.393 71.8644 146.806 71.9966 146.262 72.261C145.733 72.5106 145.3 72.8704 144.962 73.3404V78.6052C145.315 79.0752 145.756 79.4423 146.284 79.7067C146.828 79.971 147.408 80.1032 148.024 80.1032C149.097 80.1032 149.992 79.714 150.712 78.9357C151.432 78.1426 151.791 77.1587 151.791 75.9838C151.791 74.8089 151.432 73.8323 150.712 73.054C149.992 72.261 149.097 71.8644 148.024 71.8644Z" fill="#F2F5F3"/>
<path d="M156.66 70.5868V77.0632C156.66 78.0178 156.917 78.7741 157.431 79.3322C157.945 79.8902 158.642 80.1693 159.524 80.1693C160.111 80.1693 160.647 80.0297 161.132 79.7507C161.616 79.4717 162.02 79.0678 162.343 78.5391V70.5868H163.951V81.3368H162.343V79.5965C161.932 80.228 161.44 80.7053 160.867 81.0284C160.295 81.3515 159.648 81.513 158.929 81.513C157.783 81.513 156.843 81.1459 156.109 80.4116C155.39 79.6626 155.03 78.7007 155.03 77.5258V70.5868H156.66Z" fill="#F2F5F3"/>
<path d="M167.427 78.9136V71.9085H165.202V70.5868H167.427V67.6349L169.035 67.2604V70.5868H172.119V71.9085H169.035V78.4951C169.035 79.0678 169.152 79.479 169.387 79.7287C169.637 79.9783 170.041 80.1032 170.599 80.1032C170.878 80.1032 171.127 80.0811 171.348 80.0371C171.568 79.993 171.825 79.9196 172.119 79.8168V81.2487C171.825 81.3515 171.517 81.4249 171.194 81.469C170.87 81.513 170.555 81.535 170.246 81.535C169.321 81.535 168.616 81.3148 168.132 80.8742C167.662 80.4189 167.427 79.7654 167.427 78.9136Z" fill="#F2F5F3"/>
<path d="M177.413 85.9408V70.5868H178.999V72.1288C179.41 71.5854 179.909 71.1742 180.497 70.8952C181.099 70.6015 181.76 70.4546 182.479 70.4546C183.17 70.4546 183.816 70.6015 184.418 70.8952C185.035 71.1742 185.563 71.5634 186.004 72.0627C186.445 72.5473 186.79 73.1274 187.039 73.803C187.304 74.4785 187.436 75.1981 187.436 75.9618C187.436 76.7401 187.304 77.4671 187.039 78.1426C186.79 78.8182 186.437 79.4056 185.982 79.9049C185.527 80.3895 184.991 80.7787 184.374 81.0724C183.757 81.3515 183.096 81.491 182.391 81.491C181.716 81.491 181.084 81.3662 180.497 81.1165C179.924 80.8521 179.432 80.4777 179.021 79.993V85.9408H177.413ZM182.083 71.8644C181.451 71.8644 180.864 71.9966 180.321 72.261C179.792 72.5106 179.359 72.8704 179.021 73.3404V78.6052C179.373 79.0752 179.814 79.4423 180.343 79.7067C180.886 79.971 181.466 80.1032 182.083 80.1032C183.155 80.1032 184.051 79.714 184.77 78.9357C185.49 78.1426 185.85 77.1587 185.85 75.9838C185.85 74.8089 185.49 73.8323 184.77 73.054C184.051 72.261 183.155 71.8644 182.083 71.8644Z" fill="#F2F5F3"/>
<path d="M189.154 81.3368V70.5868H190.762V72.7676C191.041 72.0186 191.438 71.4385 191.952 71.0273C192.481 70.6015 193.083 70.3885 193.758 70.3885C193.949 70.3885 194.125 70.4032 194.287 70.4326C194.449 70.4473 194.61 70.484 194.772 70.5427V71.9966C194.595 71.9379 194.405 71.8938 194.199 71.8644C194.008 71.8204 193.824 71.7983 193.648 71.7983C192.987 71.7983 192.407 71.9893 191.908 72.3711C191.423 72.7529 191.041 73.289 190.762 73.9792V81.3368H189.154Z" fill="#F2F5F3"/>
<path d="M203.987 80.1032C203.37 80.5878 202.731 80.9476 202.07 81.1826C201.409 81.4176 200.704 81.535 199.955 81.535C199.206 81.535 198.501 81.3955 197.841 81.1165C197.194 80.8228 196.629 80.4263 196.144 79.9269C195.674 79.4276 195.3 78.8402 195.021 78.1646C194.756 77.4744 194.624 76.7401 194.624 75.9618C194.624 75.1834 194.749 74.4565 194.999 73.7809C195.263 73.0907 195.623 72.5033 196.078 72.0186C196.533 71.5193 197.07 71.1301 197.686 70.8511C198.303 70.5574 198.971 70.4105 199.691 70.4105C200.396 70.4105 201.049 70.5501 201.651 70.8291C202.254 71.1081 202.775 71.4899 203.216 71.9746C203.656 72.4445 204.001 73.0173 204.251 73.6928C204.501 74.3537 204.625 75.0659 204.625 75.8296V76.3142H196.188C196.262 77.401 196.666 78.3115 197.4 79.0458C198.134 79.7654 199.008 80.1252 200.021 80.1252C200.579 80.1252 201.115 80.0297 201.629 79.8388C202.158 79.6332 202.606 79.3615 202.973 79.0238L203.987 80.1032ZM199.669 71.7983C198.788 71.7983 198.031 72.1141 197.4 72.7456C196.768 73.3771 196.379 74.1848 196.232 75.1687H203.039C202.922 74.1995 202.547 73.3991 201.916 72.7676C201.299 72.1214 200.55 71.7983 199.669 71.7983Z" fill="#F2F5F3"/>
<path d="M207.225 78.9136V71.9085H205V70.5868H207.225V67.6349L208.833 67.2604V70.5868H211.917V71.9085H208.833V78.4951C208.833 79.0678 208.95 79.479 209.185 79.7287C209.435 79.9783 209.839 80.1032 210.397 80.1032C210.676 80.1032 210.925 80.0811 211.146 80.0371C211.366 79.993 211.623 79.9196 211.917 79.8168V81.2487C211.623 81.3515 211.315 81.4249 210.991 81.469C210.668 81.513 210.353 81.535 210.044 81.535C209.119 81.535 208.414 81.3148 207.929 80.8742C207.46 80.4189 207.225 79.7654 207.225 78.9136Z" fill="#F2F5F3"/>
<path d="M214.664 78.9136V71.9085H212.439V70.5868H214.664V67.6349L216.272 67.2604V70.5868H219.356V71.9085H216.272V78.4951C216.272 79.0678 216.389 79.479 216.624 79.7287C216.874 79.9783 217.278 80.1032 217.836 80.1032C218.115 80.1032 218.364 80.0811 218.585 80.0371C218.805 79.993 219.062 79.9196 219.356 79.8168V81.2487C219.062 81.3515 218.754 81.4249 218.43 81.469C218.107 81.513 217.792 81.535 217.483 81.535C216.558 81.535 215.853 81.3148 215.368 80.8742C214.899 80.4189 214.664 79.7654 214.664 78.9136Z" fill="#F2F5F3"/>
<path d="M221.425 67.9433C221.102 67.9433 220.823 67.8332 220.588 67.6129C220.367 67.3779 220.257 67.0989 220.257 66.7758C220.257 66.4674 220.367 66.2031 220.588 65.9828C220.823 65.7478 221.102 65.6303 221.425 65.6303C221.733 65.6303 221.998 65.7478 222.218 65.9828C222.453 66.2031 222.57 66.4674 222.57 66.7758C222.57 67.0989 222.46 67.3779 222.24 67.6129C222.02 67.8332 221.748 67.9433 221.425 67.9433ZM222.218 70.5868V81.3368H220.61V70.5868H222.218Z" fill="#F2F5F3"/>
<path d="M233.291 80.1032C232.674 80.5878 232.035 80.9476 231.374 81.1826C230.713 81.4176 230.008 81.535 229.259 81.535C228.511 81.535 227.806 81.3955 227.145 81.1165C226.499 80.8228 225.933 80.4263 225.449 79.9269C224.979 79.4276 224.604 78.8402 224.325 78.1646C224.061 77.4744 223.929 76.7401 223.929 75.9618C223.929 75.1834 224.053 74.4565 224.303 73.7809C224.567 73.0907 224.927 72.5033 225.382 72.0186C225.838 71.5193 226.374 71.1301 226.991 70.8511C227.607 70.5574 228.276 70.4105 228.995 70.4105C229.7 70.4105 230.354 70.5501 230.956 70.8291C231.558 71.1081 232.079 71.4899 232.52 71.9746C232.96 72.4445 233.305 73.0173 233.555 73.6928C233.805 74.3537 233.93 75.0659 233.93 75.8296V76.3142H225.493C225.566 77.401 225.97 78.3115 226.704 79.0458C227.438 79.7654 228.312 80.1252 229.326 80.1252C229.884 80.1252 230.42 80.0297 230.934 79.8388C231.462 79.6332 231.91 79.3615 232.277 79.0238L233.291 80.1032ZM228.973 71.7983C228.092 71.7983 227.336 72.1141 226.704 72.7456C226.073 73.3771 225.683 74.1848 225.537 75.1687H232.344C232.226 74.1995 231.852 73.3991 231.22 72.7676C230.603 72.1214 229.854 71.7983 228.973 71.7983Z" fill="#F2F5F3"/>
<path d="M235.574 81.3368V70.5868H237.182V72.7676C237.461 72.0186 237.857 71.4385 238.371 71.0273C238.9 70.6015 239.502 70.3885 240.178 70.3885C240.369 70.3885 240.545 70.4032 240.706 70.4326C240.868 70.4473 241.03 70.484 241.191 70.5427V71.9966C241.015 71.9379 240.824 71.8938 240.618 71.8644C240.427 71.8204 240.244 71.7983 240.068 71.7983C239.407 71.7983 238.827 71.9893 238.327 72.3711C237.843 72.7529 237.461 73.289 237.182 73.9792V81.3368H235.574Z" fill="#F2F5F3"/>
<path d="M241.331 79.1119C241.64 79.1119 241.904 79.2294 242.124 79.4643C242.359 79.6993 242.477 79.9783 242.477 80.3014C242.477 80.6392 242.359 80.9256 242.124 81.1605C241.904 81.3955 241.64 81.513 241.331 81.513C241.008 81.513 240.729 81.3955 240.494 81.1605C240.274 80.9256 240.164 80.6392 240.164 80.3014C240.164 79.9783 240.274 79.6993 240.494 79.4643C240.729 79.2294 241.008 79.1119 241.331 79.1119Z" fill="#F2F5F3"/>
</svg>
